<svg width="10" height="10" viewBox="0 0 10 10" fill="none" xmlns="http://www.w3.org/2000/svg">
<path d="M7.67406 3.15789C7.54238 3.15789 7.41488 3.17584 7.29353 3.20884L8.11609 2.26397L6.07656 1.79466L4.99998 0L3.9234 1.79466L1.88388 2.26397L2.70643 3.20884C2.58506 3.17584 2.45756 3.15789 2.3259 3.15789C1.52527 3.15789 0.873901 3.80924 0.873901 4.60987C0.873901 5.4105 1.52527 6.06187 2.3259 6.06187C2.40669 6.06187 2.48588 6.05492 2.56311 6.04218C2.4463 6.24403 2.37906 6.478 2.37906 6.7275C2.37906 7.478 2.98451 8.08945 3.73256 8.09989C3.66474 8.26232 3.62711 8.44039 3.62711 8.62713C3.62711 9.38413 4.24298 10 4.99998 10C5.75698 10 6.37285 9.38413 6.37285 8.62713C6.37285 8.44039 6.33524 8.26234 6.2674 8.09989C7.01548 8.08945 7.6209 7.47803 7.6209 6.7275C7.6209 6.47797 7.55367 6.24403 7.43685 6.04218C7.51409 6.05495 7.59324 6.06187 7.67406 6.06187C8.47469 6.06187 9.12606 5.4105 9.12606 4.60987C9.12606 3.80924 8.47469 3.15789 7.67406 3.15789Z" fill="#D9BBB3"/>
</svg>
