<svg width="220" height="56" viewBox="0 0 220 56" fill="none" xmlns="http://www.w3.org/2000/svg">
<path d="M0 23.1765H4.7667C5.77798 23.1552 6.78196 23.3492 7.7097 23.745C8.50998 24.0933 9.22422 24.6072 9.80357 25.2516C10.3561 25.8722 10.779 26.5934 11.0483 27.3741C11.3229 28.1577 11.4631 28.9806 11.4632 29.8093C11.4647 30.6389 11.3211 31.4626 11.0387 32.2445C10.7605 33.0254 10.3313 33.7461 9.77462 34.367C9.19236 35.0083 8.47886 35.5217 7.68075 35.8737C6.769 36.2663 5.78142 36.4603 4.786 36.4422H0.0193025L0 23.1765ZM1.87194 23.8397V35.7979H4.70881C5.44376 35.8133 6.1697 35.6367 6.81233 35.2862C7.41059 34.9502 7.92487 34.4873 8.3176 33.9312C8.7254 33.3548 9.02896 32.7137 9.21497 32.0361C9.61386 30.5967 9.61386 29.0788 9.21497 27.6394C9.02896 26.9618 8.7254 26.3207 8.3176 25.7443C7.92487 25.1882 7.41059 24.7253 6.81233 24.3893C6.1697 24.0388 5.44376 23.8622 4.70881 23.8777L1.87194 23.8397Z" fill="white"/>
<path d="M22.3861 22.8496C23.4847 22.8259 24.5762 23.0293 25.5896 23.4465C26.4316 23.796 27.1905 24.3134 27.8183 24.9658C28.4461 25.6182 28.9292 26.3915 29.237 27.2367C29.8544 28.8884 29.8544 30.7018 29.237 32.3535C28.9292 33.1987 28.4461 33.972 27.8183 34.6244C27.1905 35.2768 26.4316 35.7942 25.5896 36.1437C24.5762 36.561 23.4847 36.7644 22.3861 36.7407C21.2844 36.7633 20.19 36.56 19.1729 36.1437C18.305 35.7807 17.5231 35.2452 16.8764 34.5708C16.2697 33.9281 15.8034 33.1703 15.5062 32.344C14.9023 30.69 14.9023 28.8813 15.5062 27.2272C15.8034 26.4009 16.2697 25.6431 16.8764 25.0005C17.5231 24.3261 18.305 23.7905 19.1729 23.4276C20.1914 23.0178 21.2858 22.8209 22.3861 22.8496ZM22.3861 23.3991C21.5632 23.3813 20.7494 23.5705 20.022 23.9487C19.3571 24.3037 18.7805 24.7988 18.3334 25.3985C17.8744 26.0196 17.5314 26.7157 17.3203 27.4546C16.8699 28.99 16.8699 30.6191 17.3203 32.1545C17.5314 32.8934 17.8744 33.5896 18.3334 34.2107C18.7805 34.8104 19.3571 35.3055 20.022 35.6604C20.7494 36.0387 21.5632 36.2279 22.3861 36.21C23.2059 36.2286 24.0168 36.0393 24.7405 35.6604C25.4015 35.3038 25.9747 34.8089 26.4194 34.2107C26.8785 33.5896 27.2215 32.8934 27.4326 32.1545C27.883 30.6191 27.883 28.99 27.4326 27.4546C27.2215 26.7157 26.8785 26.0196 26.4194 25.3985C25.9747 24.8003 25.4015 24.3053 24.7405 23.9487C24.0164 23.5715 23.2055 23.3839 22.3861 23.4039V23.3991Z" fill="white"/>
<path d="M38.6642 23.8398L33.4729 36.4422H32.7589L38.2203 23.1765H42.659V36.4422H40.787V23.8398H38.6642Z" fill="white"/>
<path d="M55.7143 23.1765H57.567L56.5056 24.5978V36.4422H55.8494V25.4885L47.609 36.3854V36.4233H46.9529V23.1575H47.609V33.9028L55.7143 23.1765Z" fill="white"/>
<path d="M61.8223 36.4422V23.1765H63.6942V27.4025H70.796V23.1765H71.4521V36.4422H70.796V28.0611H63.6846V36.4564L61.8223 36.4422Z" fill="white"/>
<path d="M74.8197 36.4422L79.7215 24.541L79.1618 23.1765H81.0338L86.4952 36.4422H84.6426L83.0794 32.6899H77.0969L75.5337 36.4422H74.8197ZM77.3478 32.0456H82.8285L80.0882 25.4127L77.3478 32.0456Z" fill="white"/>
<path d="M161.121 23.1765H165.887C166.899 23.1552 167.903 23.3492 168.83 23.745C169.631 24.0933 170.345 24.6072 170.924 25.2516C171.477 25.8722 171.9 26.5934 172.169 27.3741C172.444 28.1577 172.584 28.9806 172.584 29.8093C172.585 30.6389 172.442 31.4626 172.159 32.2445C171.881 33.0254 171.452 33.7461 170.895 34.367C170.313 35.0083 169.6 35.5217 168.801 35.8737C167.89 36.2663 166.902 36.4603 165.907 36.4422H161.14L161.121 23.1765ZM162.993 23.8397V35.7979H165.83C166.564 35.8133 167.29 35.6367 167.933 35.2862C168.531 34.9502 169.046 34.4873 169.438 33.9312C169.846 33.3548 170.15 32.7137 170.336 32.0361C170.735 30.5967 170.735 29.0788 170.336 27.6394C170.15 26.9618 169.846 26.3207 169.438 25.7443C169.046 25.1882 168.531 24.7253 167.933 24.3893C167.29 24.0388 166.564 23.8622 165.83 23.8777L162.993 23.8397Z" fill="white"/>
<path d="M183.507 22.8496C184.605 22.8259 185.697 23.0293 186.71 23.4465C187.552 23.796 188.311 24.3134 188.939 24.9658C189.567 25.6182 190.05 26.3915 190.358 27.2367C190.975 28.8884 190.975 30.7018 190.358 32.3535C190.05 33.1987 189.567 33.972 188.939 34.6244C188.311 35.2768 187.552 35.7942 186.71 36.1437C185.697 36.561 184.605 36.7644 183.507 36.7407C182.405 36.7633 181.311 36.56 180.294 36.1437C179.426 35.7807 178.644 35.2452 177.997 34.5708C177.39 33.9281 176.924 33.1703 176.627 32.344C176.023 30.69 176.023 28.8813 176.627 27.2272C176.924 26.4009 177.39 25.6431 177.997 25.0005C178.644 24.3261 179.426 23.7905 180.294 23.4276C181.312 23.0178 182.407 22.8209 183.507 22.8496ZM183.507 23.3991C182.684 23.3813 181.87 23.5705 181.143 23.9487C180.478 24.3037 179.901 24.7988 179.454 25.3985C178.995 26.0196 178.652 26.7157 178.441 27.4546C177.991 28.99 177.991 30.6191 178.441 32.1545C178.652 32.8934 178.995 33.5896 179.454 34.2107C179.901 34.8104 180.478 35.3055 181.143 35.6604C181.87 36.0387 182.684 36.2279 183.507 36.21C184.327 36.2286 185.138 36.0393 185.861 35.6604C186.522 35.3038 187.095 34.8089 187.54 34.2107C187.999 33.5896 188.342 32.8934 188.553 32.1545C189.004 30.6191 189.004 28.99 188.553 27.4546C188.342 26.7157 187.999 26.0196 187.54 25.3985C187.095 24.8003 186.522 24.3053 185.861 23.9487C185.137 23.5715 184.326 23.3839 183.507 23.4039V23.3991Z" fill="white"/>
<path d="M195.317 36.4422V23.1765H197.189V27.4025H204.291V23.1765H204.947V36.4422H204.291V28.0611H197.189V36.4564L195.317 36.4422Z" fill="white"/>
<path d="M208.324 36.4422L213.226 24.541L212.667 23.1765H214.539L220 36.4422H218.147L216.584 32.6899H210.602L209.039 36.4422H208.324ZM210.853 32.0456H216.333L213.593 25.4127L210.853 32.0456Z" fill="white"/>
<path d="M138.136 26.371C138.104 26.497 138.095 26.6276 138.108 26.7569C138.108 27.0663 138.059 27.3757 138.025 27.6816C138.029 27.7872 138.011 27.8926 137.972 27.991C137.878 27.8827 137.793 27.7664 137.719 27.6433C137.285 26.9432 136.673 26.371 135.946 25.9852C135.575 25.7743 135.17 25.6285 134.75 25.5541C134.569 25.5229 134.402 25.4603 134.215 25.4359C133.925 25.3971 133.63 25.4355 133.359 25.5472C132.817 25.7558 132.278 25.9678 131.733 26.1694C131.7 26.1774 131.671 26.1962 131.651 26.2228C131.631 26.2493 131.62 26.282 131.621 26.3154C131.621 26.4371 131.621 26.5588 131.621 26.6804C131.617 26.7711 131.602 26.8609 131.576 26.9481C131.525 27.0935 131.431 27.2202 131.307 27.3119C131.183 27.4036 131.035 27.4561 130.881 27.4626C130.636 27.4663 130.394 27.3999 130.186 27.2714C130.033 27.1763 129.912 27.0385 129.838 26.8751C129.473 26.1571 128.893 25.5704 128.18 25.1961C127.722 24.9509 127.226 24.784 126.713 24.7025C126.537 24.6715 126.359 24.6494 126.181 24.6364C125.937 24.6198 125.693 24.6806 125.486 24.8102C125.219 24.9778 124.94 25.1254 124.652 25.2517C124.353 25.3785 124.034 25.4514 123.709 25.4672C123.325 25.475 122.945 25.3828 122.607 25.1996C122.298 25.0431 121.989 24.8798 121.672 24.7303C121.438 24.6229 121.183 24.5705 120.925 24.5773C120.644 24.5873 120.368 24.6473 120.108 24.7546C119.559 24.9676 119.053 25.2773 118.613 25.6688C118.204 26.0136 117.877 26.4461 117.657 26.9342C117.65 26.9462 117.644 26.9591 117.64 26.9724C117.607 27.0736 117.543 27.1617 117.457 27.2242C117.37 27.2866 117.267 27.3202 117.16 27.32C116.977 27.3458 116.79 27.3291 116.614 27.2714C116.488 27.2277 116.375 27.1496 116.29 27.0459C116.205 26.9422 116.15 26.8169 116.131 26.6839C116.083 26.4505 116.107 26.2079 116.201 25.9887C116.229 25.9226 116.201 25.8948 116.159 25.8601L115.318 25.3282C115.144 25.2135 114.97 25.1057 114.796 24.9806C114.457 24.7281 114.048 24.585 113.625 24.5704C113.345 24.5477 113.064 24.5477 112.784 24.5704C111.818 24.6517 110.903 25.0389 110.173 25.6758C109.922 25.8988 109.69 26.1418 109.478 26.4023C109.424 26.4562 109.384 26.5216 109.36 26.5935C109.862 26.4922 110.373 26.4341 110.886 26.4197C110.886 26.5344 110.788 26.5796 110.715 26.6283C110.602 26.7027 110.494 26.7852 110.392 26.8751C110.143 27.127 109.933 27.4153 109.77 27.7302C109.684 27.8871 109.606 28.0484 109.537 28.2134C109.531 28.228 109.524 28.242 109.516 28.2551C109.516 28.283 109.492 28.3212 109.447 28.3108C109.401 28.3004 109.412 28.2725 109.405 28.2413C109.38 28.0953 109.349 27.9492 109.325 27.7998C109.228 27.2331 109.134 26.6665 109.085 26.093C109.057 25.8149 109.022 25.5367 109.022 25.2552C109.022 25.2308 109.022 25.2065 108.995 25.1926V24.4974C109.021 24.2771 109.031 24.0551 109.022 23.8334C109.04 22.5923 109.275 21.364 109.718 20.2042C109.993 19.4253 110.394 18.6971 110.907 18.049C111.526 17.2895 112.286 16.6568 113.145 16.1857C113.98 15.728 114.865 15.3698 115.784 15.1185C116.356 14.9678 116.914 14.7641 117.449 14.5102C118.241 14.1245 118.891 13.4978 119.305 12.7199C119.643 12.0796 119.859 11.3816 119.941 10.662C120.026 9.89923 120.054 9.13116 120.025 8.36422C120.025 7.70026 119.896 7.04325 119.813 6.38277C119.594 4.96575 119.179 3.58622 118.579 2.2843C118.422 1.91235 118.231 1.55777 118.078 1.18582C118.054 1.12672 117.97 1.0433 118.099 0.994629H129.108C129.219 1.01549 129.164 1.08849 129.146 1.13716C129.066 1.35616 128.955 1.56125 128.861 1.77678C128.59 2.38164 128.284 2.97608 128.065 3.60527C127.768 4.43223 127.562 5.2889 127.45 6.16029C127.391 6.65739 127.325 7.15449 127.283 7.65159C127.213 8.37123 127.193 9.09489 127.224 9.81728C127.224 10.1649 127.224 10.5438 127.283 10.9053C127.38 11.4946 127.564 12.0663 127.829 12.6017C127.95 12.8828 128.105 13.1478 128.291 13.3908C128.637 13.7866 129.05 14.1184 129.511 14.3711C130.08 14.6877 130.684 14.934 131.312 15.1046C131.904 15.2619 132.485 15.4593 133.05 15.6956C133.924 16.0809 134.742 16.5813 135.483 17.1834C135.942 17.5796 136.331 18.0496 136.634 18.5739C137.245 19.614 137.7 20.7384 137.983 21.9111C138.055 22.2281 138.091 22.5523 138.091 22.8774C138.091 23.1416 138.091 23.4093 138.091 23.677V24.5252C138.077 24.5717 138.077 24.6212 138.091 24.6677L138.136 26.371Z" fill="white"/>
<path d="M119.31 34.9488C119.31 32.0913 121.396 29.9848 124.021 30.0334C125.224 30.0598 126.369 30.5576 127.209 31.4197C128.049 32.2818 128.517 33.4392 128.512 34.6429C128.52 35.2777 128.393 35.907 128.138 36.4885C127.883 37.0701 127.507 37.5904 127.035 38.0148C126.194 38.8197 125.07 39.2595 123.906 39.2384C123.281 39.2459 122.662 39.122 122.088 38.8747C121.515 38.6273 120.999 38.2621 120.576 37.8028C119.819 37.0384 119.369 36.0229 119.31 34.9488Z" fill="white"/>
<path d="M117.805 35.1087C117.805 35.8187 117.593 36.5126 117.197 37.1018C116.801 37.691 116.238 38.1488 115.581 38.4169C114.924 38.685 114.201 38.7512 113.506 38.607C112.811 38.4628 112.174 38.1147 111.678 37.6073C111.181 37.0999 110.847 36.456 110.718 35.7578C110.589 35.0596 110.67 34.3388 110.953 33.6873C111.235 33.0359 111.705 32.4832 112.302 32.0999C112.9 31.7166 113.598 31.52 114.308 31.5351C115.245 31.548 116.139 31.931 116.794 32.6006C117.449 33.2702 117.813 34.1719 117.805 35.1087Z" fill="white"/>
<path d="M136.514 33.0716C136.452 33.0473 136.441 32.9986 136.417 32.9569C136.14 32.4692 135.825 32.0042 135.475 31.5664C134.985 30.9505 134.388 30.4277 133.712 30.023C133.507 29.9046 133.29 29.8068 133.066 29.731C133.001 29.7122 132.942 29.6766 132.895 29.6278C132.848 29.579 132.814 29.5187 132.798 29.4529C132.687 29.1226 132.562 28.7994 132.419 28.4795C132.379 28.4065 132.364 28.3224 132.377 28.2401C132.389 28.1577 132.429 28.0819 132.489 28.0242C132.698 27.7929 132.972 27.6295 133.274 27.5549C133.708 27.4508 134.158 27.433 134.599 27.5027C134.954 27.5569 135.303 27.6442 135.642 27.7634C135.837 27.825 136.016 27.9309 136.163 28.0728C136.442 28.3252 136.677 28.6224 136.858 28.9523C137.03 29.2775 137.141 29.6307 137.189 29.9952C137.271 30.7487 137.165 31.5109 136.879 32.213C136.779 32.4726 136.663 32.7257 136.532 32.9708C136.529 33.0048 136.523 33.0385 136.514 33.0716Z" fill="white"/>
<path d="M118.56 32.425C118.528 32.2373 118.504 32.0774 118.473 31.9279C118.376 31.3279 118.164 30.752 117.85 30.2315C117.657 29.8966 117.394 29.6066 117.08 29.3806C116.766 29.1547 116.408 28.9981 116.029 28.921C115.853 28.884 115.673 28.8677 115.494 28.8723C115.416 28.8817 115.338 28.8666 115.269 28.8292C115.201 28.7918 115.145 28.734 115.111 28.6638C115.038 28.5282 114.948 28.3996 114.868 28.2675C114.788 28.1354 114.812 28.1702 114.91 28.1111C115.153 27.9616 115.396 27.8121 115.643 27.6661C115.74 27.6035 115.841 27.5444 115.942 27.4853C115.984 27.4559 116.033 27.44 116.085 27.44C116.136 27.44 116.185 27.4559 116.227 27.4853C116.478 27.6341 116.772 27.6952 117.061 27.6592C117.334 27.6168 117.605 27.5599 117.871 27.4888C118.193 27.4269 118.526 27.4419 118.841 27.5325C119.156 27.6231 119.446 27.7868 119.686 28.0103C119.852 28.1741 119.972 28.3792 120.034 28.6047C120.217 29.1261 120.309 29.6753 120.305 30.2281C120.306 30.2713 120.297 30.3141 120.279 30.3534C120.261 30.3926 120.234 30.427 120.2 30.454C119.852 30.7703 119.536 31.1195 119.255 31.4969L118.56 32.425Z" fill="white"/>
<path d="M110.158 31.2987C110.095 31.1145 110.057 30.9511 110.012 30.7599C109.911 30.3602 109.803 29.9639 109.72 29.5606C109.618 29.0936 109.69 28.6056 109.921 28.1875C110.151 27.7542 110.447 27.359 110.797 27.016C110.954 26.8507 111.145 26.7201 111.355 26.6327C111.566 26.5453 111.793 26.503 112.021 26.5085C112.306 26.5044 112.592 26.516 112.876 26.5433C113.514 26.5985 114.115 26.8638 114.586 27.2976C114.659 27.3741 114.722 27.461 114.791 27.541C114.861 27.6209 114.823 27.6418 114.771 27.6835C114.611 27.8191 114.454 27.9511 114.291 28.0832C114.127 28.2153 113.943 28.3544 113.787 28.4969C113.678 28.5873 113.542 28.6376 113.401 28.6395L112.921 28.6638C112.554 28.6955 112.202 28.8265 111.903 29.0427C111.312 29.4566 110.829 30.0046 110.491 30.6418C110.382 30.8295 110.291 31.0274 110.22 31.2327C110.216 31.2481 110.208 31.2623 110.197 31.2738C110.186 31.2854 110.173 31.2939 110.158 31.2987Z" fill="white"/>
<path d="M128.842 27.1864C129.203 27.1905 129.555 27.2965 129.857 27.4923C130.185 27.706 130.572 27.8106 130.963 27.7913C131.025 27.788 131.086 27.781 131.147 27.7704C131.227 27.7562 131.308 27.7611 131.386 27.7846C131.463 27.8082 131.534 27.8498 131.592 27.906C131.753 28.0362 131.874 28.2099 131.94 28.4065C131.974 28.5178 131.974 28.5178 131.87 28.5769L130.827 29.1783C130.763 29.2108 130.7 29.2468 130.639 29.286C130.567 29.3389 130.482 29.3728 130.393 29.385C130.304 29.3971 130.213 29.387 130.128 29.3556C129.862 29.2673 129.582 29.2249 129.301 29.2304C128.963 29.2348 128.63 29.3105 128.323 29.4524C128.017 29.5944 127.743 29.7995 127.521 30.0543C127.466 30.1134 127.424 30.2142 127.351 30.2177C127.278 30.2211 127.219 30.1481 127.156 30.1029C127.017 30.0126 126.885 29.9187 126.746 29.8249C126.7 29.7988 126.664 29.7578 126.643 29.7086C126.623 29.6594 126.62 29.6048 126.635 29.5537C126.689 29.2139 126.779 28.8807 126.903 28.5595C127.045 28.2247 127.244 27.9167 127.49 27.6487C127.715 27.4027 128.024 27.25 128.356 27.2212C128.517 27.2 128.679 27.1884 128.842 27.1864Z" fill="white"/>
<path d="M118.5 40.8271C118.168 40.8242 117.844 40.7223 117.57 40.5345C117.296 40.3467 117.084 40.0815 116.961 39.7727C116.839 39.4639 116.811 39.1255 116.881 38.8008C116.952 38.476 117.117 38.1796 117.357 37.9494C117.596 37.7192 117.899 37.5656 118.226 37.5082C118.554 37.4508 118.891 37.4922 119.194 37.6272C119.498 37.7621 119.755 37.9845 119.931 38.2659C120.108 38.5473 120.197 38.875 120.186 39.2072C120.182 39.4243 120.136 39.6385 120.049 39.8376C119.962 40.0366 119.836 40.2164 119.68 40.3669C119.523 40.5174 119.338 40.6355 119.136 40.7145C118.934 40.7934 118.718 40.8317 118.5 40.8271Z" fill="white"/>
<path d="M117.969 27.0161C118.041 26.8193 118.145 26.636 118.278 26.4738C118.73 25.8676 119.345 25.4023 120.051 25.132C120.181 25.0697 120.316 25.0174 120.454 24.9755C120.896 24.8671 121.362 24.924 121.765 25.1354C121.98 25.2397 122.185 25.3579 122.397 25.4657C122.678 25.6083 122.98 25.7057 123.291 25.7542C123.328 25.7567 123.364 25.7687 123.396 25.7891C123.427 25.8095 123.453 25.8376 123.47 25.8707C123.487 25.9038 123.496 25.9409 123.495 25.9783C123.494 26.0157 123.484 26.0522 123.465 26.0844C123.437 26.1401 123.388 26.1505 123.332 26.1644L122.755 26.3104C121.965 26.4942 121.232 26.8703 120.621 27.4054C120.499 27.5166 120.388 27.6383 120.273 27.753L120.204 27.8295C120.131 27.8921 120.12 27.8956 120.051 27.8295C119.598 27.3481 118.974 27.0635 118.313 27.0369C118.199 27.0215 118.084 27.0145 117.969 27.0161Z" fill="white"/>
<path d="M129.35 26.8249C129.089 26.7859 128.825 26.7707 128.561 26.7797C128.267 26.7917 127.979 26.8643 127.714 26.9929C127.45 27.1215 127.215 27.3034 127.024 27.5271C126.937 27.6279 126.934 27.6313 126.816 27.5653C126.378 27.316 125.922 27.0987 125.453 26.9152C125.003 26.7443 124.537 26.6185 124.062 26.5398C123.91 26.5155 123.923 26.512 123.892 26.366C123.878 26.2168 123.878 26.0667 123.892 25.9176C123.892 25.8237 123.92 25.7994 124.038 25.775C124.276 25.7242 124.509 25.6508 124.733 25.556C124.915 25.4758 125.09 25.3829 125.258 25.2779C125.578 25.0686 125.959 24.9731 126.339 25.0068C126.628 25.0352 126.914 25.0934 127.191 25.1806C127.73 25.3285 128.234 25.5839 128.672 25.9315C128.912 26.1298 129.12 26.3643 129.287 26.6267C129.322 26.6874 129.344 26.7551 129.35 26.8249Z" fill="white"/>
<path d="M131.623 31.8723C131.93 31.8737 132.229 31.966 132.483 32.1375C132.738 32.309 132.935 32.552 133.051 32.8358C133.167 33.1197 133.197 33.4315 133.136 33.732C133.074 34.0325 132.925 34.3081 132.708 34.5239C132.49 34.7398 132.213 34.8862 131.912 34.9447C131.611 35.0032 131.299 34.971 131.017 34.8524C130.734 34.7338 130.493 34.534 130.323 34.2783C130.154 34.0226 130.065 33.7224 130.066 33.4158C130.06 33.2103 130.096 33.0059 130.173 32.815C130.249 32.6242 130.364 32.4511 130.51 32.3064C130.656 32.1617 130.83 32.0485 131.022 31.9738C131.213 31.8992 131.418 31.8646 131.623 31.8723Z" fill="white"/>
<path d="M120.722 30.0717C120.701 29.8318 120.68 29.6093 120.659 29.3764C120.642 29.0418 120.565 28.7131 120.43 28.4065C120.406 28.3612 120.398 28.3095 120.407 28.2593C120.416 28.209 120.441 28.1631 120.478 28.1284C121.19 27.3219 122.155 26.7813 123.214 26.5954C123.44 26.5572 123.451 26.5711 123.492 26.797C123.492 26.8909 123.492 26.9882 123.517 27.0856C123.517 27.4332 123.534 27.8121 123.548 28.1736C123.548 28.3683 123.548 28.5595 123.548 28.7542C123.548 28.9488 123.524 28.9349 123.381 28.9419C123.072 28.9645 122.766 29.0228 122.47 29.1157C121.912 29.2837 121.389 29.5523 120.927 29.9083C120.866 29.9711 120.797 30.026 120.722 30.0717Z" fill="white"/>
<path d="M110.269 26.067C110.325 25.9926 110.39 25.926 110.463 25.8689C111.091 25.3753 111.834 25.0488 112.622 24.9199C113.071 24.8417 113.529 24.8417 113.978 24.9199C114.135 24.9487 114.286 25.009 114.419 25.0972L115.556 25.855C115.628 25.8901 115.686 25.9491 115.72 26.022C115.753 26.0949 115.761 26.1771 115.74 26.2547C115.702 26.4668 115.721 26.6854 115.796 26.8874C115.796 26.9187 115.796 26.9535 115.824 26.9848C115.828 26.9946 115.83 27.0051 115.83 27.0156C115.829 27.0262 115.827 27.0366 115.823 27.0463C115.819 27.056 115.813 27.0648 115.805 27.0721C115.797 27.0795 115.788 27.0852 115.779 27.089C115.647 27.1655 115.521 27.2455 115.389 27.3185C115.257 27.3915 115.212 27.3915 115.118 27.2698C114.842 26.9374 114.495 26.6703 114.103 26.4877C113.717 26.297 113.298 26.1791 112.869 26.14C112.327 26.0752 111.781 26.0415 111.235 26.0392C110.964 26.0392 110.693 26.067 110.425 26.0949C110.373 26.1053 110.317 26.1192 110.269 26.067Z" fill="white"/>
<path d="M133.973 25.7507C134.503 25.783 135.022 25.9114 135.506 26.1296C135.979 26.3473 136.408 26.6501 136.772 27.023C136.94 27.196 137.095 27.3807 137.237 27.5757C137.256 27.5992 137.271 27.6249 137.283 27.6522C137.283 27.6835 137.283 27.7113 137.237 27.6974L137.084 27.6522C136.534 27.4667 135.972 27.3157 135.402 27.2003C135.137 27.1474 134.869 27.1103 134.599 27.0891C134.425 27.0786 134.251 27.0786 134.077 27.0891C133.705 27.0965 133.335 27.1549 132.979 27.2629C132.668 27.3631 132.39 27.5443 132.172 27.7878C132.089 27.8747 132.089 27.8782 132.009 27.7878C131.929 27.6974 131.828 27.5966 131.738 27.5062C131.707 27.4788 131.685 27.4422 131.675 27.4016C131.666 27.3611 131.67 27.3186 131.686 27.2802C131.759 27.0647 131.828 26.8492 131.898 26.6337C131.914 26.5729 131.945 26.5172 131.988 26.4716C132.031 26.426 132.085 26.392 132.145 26.3729C132.645 26.1852 133.139 25.9906 133.636 25.7924C133.745 25.7602 133.859 25.7461 133.973 25.7507Z" fill="white"/>
<path d="M123.913 27.3602C123.913 27.2351 123.913 27.1482 123.913 27.0612C123.913 26.9743 123.934 26.9743 124 26.9778C124.192 26.9924 124.383 27.0226 124.57 27.0682C125.218 27.2197 125.839 27.4681 126.412 27.8052C126.496 27.8538 126.611 27.8851 126.645 27.972C126.68 28.0589 126.607 28.1528 126.576 28.2466C126.454 28.6186 126.332 28.9905 126.204 29.3625C126.162 29.4876 126.204 29.4981 126.037 29.4355C125.642 29.2742 125.237 29.1406 124.824 29.0357C124.642 28.9843 124.453 28.9586 124.264 28.9593C124.225 28.9569 124.187 28.9511 124.149 28.9419C124.021 28.9141 124.014 28.9037 124 28.7716C123.972 28.4239 123.958 28.0763 123.941 27.7287C123.937 27.6036 123.923 27.461 123.913 27.3602Z" fill="white"/>
<path d="M132.155 28.9175C132.447 29.5826 132.647 30.2843 132.75 31.0033C132.686 31.0062 132.623 30.9943 132.565 30.9685C132.04 30.8221 131.483 30.8367 130.966 31.0102C130.489 31.1705 130.039 31.4052 129.635 31.7055C129.59 31.7459 129.538 31.7777 129.482 31.7993C129.423 31.7298 129.451 31.6498 129.465 31.5768C129.565 31.0302 129.824 30.5251 130.208 30.1238C130.749 29.5687 131.417 29.1545 132.155 28.9175Z" fill="white"/>
<path d="M136.121 33.3254L135.68 33.2385C135.26 33.1412 134.828 33.1061 134.397 33.1342C134.23 33.1342 134.213 33.1342 134.144 32.9778C134.036 32.724 133.935 32.4668 133.796 32.2199C133.664 31.9443 133.486 31.6928 133.271 31.476C133.19 31.385 133.146 31.2675 133.146 31.1458C133.115 30.8399 133.094 30.534 133.062 30.2003C133.626 30.464 134.143 30.8161 134.595 31.2431C135.239 31.8167 136.042 32.943 136.121 33.3254Z" fill="white"/>
<path d="M113.137 29.0149H113.178C113.317 29.0149 113.328 29.0357 113.262 29.1574C113.105 29.4425 112.939 29.7206 112.81 30.0195C112.724 30.2091 112.659 30.4072 112.615 30.6105C112.607 30.6608 112.586 30.7083 112.556 30.7489C112.525 30.7895 112.484 30.8219 112.438 30.8434C111.756 31.1882 111.146 31.6602 110.641 32.2339C110.623 32.2564 110.603 32.2773 110.582 32.2964C110.474 32.4042 110.446 32.3938 110.401 32.2443C110.359 32.0682 110.373 31.8832 110.443 31.7159C110.651 31.045 111.007 30.4296 111.486 29.9152C111.732 29.6351 112.024 29.3999 112.351 29.22C112.596 29.098 112.863 29.0282 113.137 29.0149Z" fill="white"/>
<path d="M115.469 29.2617C115.847 29.2734 116.217 29.374 116.548 29.5552C116.88 29.7363 117.164 29.9931 117.378 30.3046C117.667 30.7474 117.867 31.242 117.969 31.7611C117.993 31.8619 118.01 31.9592 118.028 32.0601C118.028 32.1018 118.028 32.1539 117.99 32.1748C117.969 32.1827 117.947 32.1839 117.925 32.1783C117.904 32.1727 117.885 32.1605 117.871 32.1435C117.579 31.8862 117.284 31.636 116.981 31.3961C116.614 31.0858 116.187 30.855 115.726 30.7182C115.619 30.6904 115.587 30.6452 115.587 30.5271C115.587 30.3498 115.587 30.1794 115.587 29.9917C115.581 29.7442 115.541 29.4987 115.469 29.2617Z" fill="white"/>
<path d="M115.205 30.1968C115.203 30.2784 115.195 30.3597 115.181 30.4401C115.181 30.5166 115.132 30.5096 115.08 30.4957C114.896 30.4575 114.711 30.4297 114.524 30.4088C114.09 30.3587 113.651 30.3929 113.231 30.5097C113.078 30.5479 113.067 30.5375 113.098 30.3776C113.15 30.1713 113.233 29.9744 113.345 29.7936C113.576 29.3718 113.865 28.9845 114.204 28.6429C114.276 28.5728 114.356 28.51 114.44 28.4552C114.447 28.4482 114.456 28.443 114.465 28.4402C114.475 28.4373 114.485 28.4369 114.495 28.439C114.504 28.4411 114.513 28.4456 114.521 28.452C114.528 28.4585 114.534 28.4668 114.538 28.4761C114.82 28.8585 115.03 29.2898 115.156 29.7484C115.187 29.8959 115.204 30.0461 115.205 30.1968Z" fill="white"/>
<path d="M128.971 31.7402L128.682 31.476L127.751 30.5757C127.695 30.5236 127.685 30.4853 127.751 30.4193C127.952 30.1535 128.216 29.9426 128.52 29.8059C128.824 29.6693 129.157 29.6112 129.489 29.6371C129.609 29.6466 129.726 29.6759 129.836 29.724C129.92 29.7588 129.923 29.7658 129.868 29.8353C129.767 29.9639 129.666 30.096 129.576 30.2316C129.409 30.504 129.276 30.7958 129.179 31.1006L128.971 31.7402Z" fill="white"/>
<path d="M137.595 29.585C137.411 29.0202 137.138 28.4886 136.785 28.0103C136.858 27.9969 136.932 28.0041 137.001 28.0311C137.223 28.125 137.449 28.2154 137.672 28.3127C137.894 28.4101 137.863 28.4379 137.825 28.6186C137.766 28.9106 137.703 29.2026 137.641 29.4981C137.636 29.5315 137.62 29.5623 137.595 29.585Z" fill="white"/>
<path d="M123.777 44.5814C123.784 43.8885 123.586 43.2092 123.208 42.6279C122.831 42.0467 122.292 41.5892 121.656 41.3125C121.021 41.0358 120.319 40.952 119.636 41.0716C118.954 41.1912 118.321 41.5089 117.818 41.9852C117.315 42.4615 116.963 43.0752 116.806 43.7501C116.649 44.425 116.694 45.1311 116.935 45.7806C117.176 46.4301 117.603 46.9943 118.163 47.4028C118.723 47.8114 119.39 48.0464 120.082 48.0785C120.557 48.1019 121.032 48.029 121.478 47.8641C121.923 47.6992 122.331 47.4458 122.677 47.119C123.022 46.7922 123.297 46.3989 123.487 45.9628C123.676 45.5267 123.775 45.0568 123.777 44.5814Z" fill="white"/>
<path d="M128.363 45.8398C127.864 45.8414 127.377 45.9897 126.962 46.2661C126.547 46.5425 126.223 46.9348 126.029 47.3942C125.836 47.8537 125.782 48.3598 125.874 48.8498C125.966 49.3398 126.2 49.7918 126.547 50.1498C126.894 50.5077 127.338 50.7556 127.825 50.8627C128.312 50.9698 128.82 50.9313 129.285 50.752C129.75 50.5727 130.152 50.2606 130.441 49.8544C130.73 49.4483 130.894 48.966 130.911 48.4678C130.923 48.1262 130.866 47.7856 130.743 47.4665C130.62 47.1474 130.434 46.8564 130.196 46.611C129.958 46.3655 129.673 46.1707 129.358 46.0382C129.043 45.9056 128.704 45.8382 128.363 45.8398Z" fill="white"/>
<path d="M124.076 51.2801C123.703 51.2773 123.337 51.3854 123.025 51.5907C122.713 51.796 122.469 52.0892 122.324 52.4332C122.178 52.7773 122.138 53.1567 122.209 53.5235C122.279 53.8903 122.457 54.2279 122.719 54.4937C122.982 54.7595 123.317 54.9415 123.683 55.0166C124.049 55.0917 124.428 55.0567 124.774 54.9158C125.12 54.775 125.417 54.5347 125.626 54.2254C125.835 53.916 125.948 53.5516 125.95 53.1781C125.954 52.9299 125.908 52.6834 125.815 52.4531C125.723 52.2227 125.585 52.0131 125.411 51.8364C125.237 51.6597 125.029 51.5196 124.8 51.424C124.57 51.3285 124.325 51.2796 124.076 51.2801Z" fill="white"/>
<path d="M122.293 49.0831C122.293 49.5137 122.464 49.9266 122.769 50.231C123.073 50.5355 123.486 50.7065 123.916 50.7065C124.347 50.7065 124.76 50.5355 125.064 50.231C125.369 49.9266 125.54 49.5137 125.54 49.0831C125.54 48.6526 125.369 48.2396 125.064 47.9352C124.76 47.6308 124.347 47.4597 123.916 47.4597C123.486 47.4597 123.073 47.6308 122.769 47.9352C122.464 48.2396 122.293 48.6526 122.293 49.0831Z" fill="white"/>
<path d="M116.641 41.856C116.643 41.3651 116.499 40.8846 116.228 40.4755C115.956 40.0663 115.569 39.7471 115.116 39.5581C114.663 39.3691 114.164 39.3189 113.683 39.4139C113.201 39.5089 112.758 39.7449 112.411 40.0918C112.063 40.4387 111.827 40.8809 111.731 41.3625C111.636 41.844 111.685 42.3431 111.873 42.7965C112.062 43.2499 112.38 43.6371 112.789 43.9091C113.198 44.181 113.678 44.3255 114.169 44.3241C114.824 44.3241 115.452 44.0642 115.916 43.6015C116.379 43.1387 116.64 42.5109 116.641 41.856ZM114.148 43.9417C113.737 43.9376 113.335 43.8118 112.995 43.5801C112.655 43.3485 112.391 43.0213 112.236 42.6399C112.082 42.2584 112.043 41.8397 112.126 41.4365C112.209 41.0333 112.409 40.6636 112.702 40.374C112.994 40.0844 113.366 39.8878 113.77 39.809C114.174 39.7302 114.592 39.7727 114.972 39.9311C115.352 40.0896 115.676 40.3569 115.905 40.6994C116.133 41.042 116.255 41.4444 116.255 41.856C116.254 42.1314 116.199 42.404 116.093 42.658C115.987 42.912 115.831 43.1424 115.635 43.336C115.44 43.5296 115.207 43.6825 114.952 43.7859C114.697 43.8892 114.424 43.941 114.148 43.9383V43.9417Z" fill="white"/>
<path d="M122.324 50.5709C122.192 50.0959 121.907 49.6774 121.514 49.3793C121.121 49.0811 120.641 48.9197 120.148 48.9197C119.729 48.9125 119.318 49.0272 118.963 49.25C118.604 49.4573 118.314 49.7655 118.128 50.1363C117.943 50.5071 117.871 50.9241 117.92 51.3357C117.944 51.6316 118.032 51.9188 118.178 52.1775C118.324 52.4361 118.524 52.6601 118.765 52.834C119.052 53.0552 119.389 53.2025 119.747 53.2631C120.104 53.3237 120.471 53.2957 120.816 53.1816C121.149 53.095 121.455 52.9266 121.706 52.6916C121.957 52.4567 122.146 52.1627 122.255 51.8363C122.4 51.4302 122.424 50.9905 122.324 50.5709ZM121.358 52.4724C121.016 52.7653 120.581 52.9256 120.131 52.9243C119.697 52.9264 119.276 52.7757 118.943 52.4985C118.609 52.2214 118.383 51.8355 118.306 51.4087C118.262 51.1795 118.267 50.9435 118.321 50.7163C118.375 50.4892 118.476 50.2761 118.619 50.0912C118.886 49.7166 119.28 49.4522 119.728 49.3473C120.051 49.2751 120.388 49.2943 120.701 49.4029C121.119 49.5257 121.479 49.7946 121.716 50.1607C121.946 50.5241 122.037 50.9587 121.971 51.3838C121.905 51.809 121.687 52.1958 121.358 52.4724Z" fill="white"/>
<path d="M134.582 34.4899C134.027 34.4708 133.479 34.617 133.007 34.9098C132.536 35.2025 132.162 35.6288 131.933 36.1345C131.704 36.6401 131.63 37.2024 131.721 37.75C131.812 38.2975 132.064 38.8056 132.444 39.2099C132.825 39.6142 133.317 39.8964 133.858 40.0208C134.399 40.1451 134.964 40.1059 135.483 39.9083C136.002 39.7106 136.45 39.3633 136.771 38.9105C137.092 38.4576 137.271 37.9197 137.286 37.3648C137.299 36.9981 137.238 36.6326 137.109 36.2893C136.98 35.9459 136.784 35.6316 136.532 35.3644C136.281 35.0971 135.979 34.8823 135.644 34.7323C135.309 34.5822 134.948 34.4998 134.582 34.4899ZM134.484 39.7043C134.001 39.7077 133.528 39.5674 133.125 39.3012C132.723 39.035 132.408 38.6549 132.222 38.2094C132.036 37.7638 131.986 37.2729 132.08 36.7992C132.173 36.3255 132.406 35.8903 132.747 35.5491C133.089 35.2079 133.525 34.9761 133.999 34.8831C134.472 34.7902 134.963 34.8403 135.408 35.0272C135.854 35.2141 136.233 35.5292 136.499 35.9324C136.765 36.3357 136.904 36.8089 136.9 37.2918C136.898 37.9329 136.644 38.5475 136.191 39.0018C135.739 39.4562 135.125 39.7136 134.484 39.7182V39.7043Z" fill="white"/>
<path d="M129.823 39.4644C130.126 39.4678 130.423 39.3809 130.677 39.2147C130.93 39.0485 131.128 38.8106 131.246 38.5312C131.364 38.2519 131.396 37.9438 131.338 37.6463C131.28 37.3487 131.134 37.0752 130.92 36.8606C130.706 36.646 130.433 36.5 130.135 36.4413C129.838 36.3826 129.53 36.4137 129.25 36.5309C128.971 36.648 128.732 36.8457 128.566 37.0989C128.399 37.352 128.311 37.6491 128.314 37.9522C128.319 38.351 128.48 38.732 128.762 39.0143C129.043 39.2967 129.424 39.4581 129.823 39.4644ZM129.843 36.7981C130.143 36.8035 130.428 36.9253 130.639 37.1375C130.85 37.3497 130.97 37.6357 130.973 37.9349C130.973 38.2364 130.853 38.5255 130.64 38.7387C130.427 38.9518 130.138 39.0716 129.836 39.0716C129.535 39.0716 129.246 38.9518 129.033 38.7387C128.82 38.5255 128.7 38.2364 128.7 37.9349C128.705 37.6342 128.828 37.3475 129.041 37.1359C129.255 36.9242 129.543 36.8043 129.843 36.8016V36.7981Z" fill="white"/>
<path d="M127.288 39.3914C126.706 39.3908 126.137 39.5625 125.652 39.8849C125.168 40.2073 124.789 40.666 124.565 41.2032C124.341 41.7404 124.28 42.332 124.392 42.9033C124.503 43.4747 124.781 44.0003 125.191 44.4139C125.601 44.8274 126.123 45.1104 126.694 45.2272C127.264 45.3439 127.856 45.2892 128.395 45.0699C128.935 44.8507 129.397 44.4766 129.724 43.995C130.051 43.5134 130.228 42.9457 130.233 42.3636C130.24 41.9736 130.169 41.586 130.024 41.2239C129.879 40.8617 129.663 40.5324 129.389 40.2552C129.114 39.9781 128.787 39.7589 128.426 39.6105C128.065 39.4621 127.679 39.3876 127.288 39.3914Z" fill="white"/>
<path d="M132.447 40.2465C132.094 40.2417 131.747 40.3421 131.45 40.5349C131.154 40.7278 130.921 41.0044 130.783 41.3296C130.644 41.6548 130.605 42.0139 130.671 42.3613C130.736 42.7087 130.904 43.0288 131.152 43.2807C131.4 43.5327 131.717 43.7053 132.064 43.7765C132.41 43.8477 132.77 43.8143 133.097 43.6806C133.424 43.5469 133.705 43.3189 133.902 43.0256C134.1 42.7323 134.205 42.3869 134.206 42.0333C134.209 41.8003 134.165 41.569 134.078 41.3527C133.991 41.1365 133.862 40.9397 133.699 40.7736C133.535 40.6075 133.34 40.4754 133.126 40.3849C132.911 40.2945 132.68 40.2474 132.447 40.2465ZM132.447 43.4203C132.078 43.4203 131.725 43.2738 131.464 43.0131C131.203 42.7523 131.057 42.3986 131.057 42.0298C131.057 41.7548 131.138 41.486 131.291 41.2573C131.444 41.0287 131.661 40.8505 131.915 40.7452C132.169 40.64 132.449 40.6124 132.718 40.6661C132.988 40.7197 133.236 40.8522 133.43 41.0466C133.625 41.2411 133.757 41.4889 133.811 41.7586C133.865 42.0283 133.837 42.3079 133.732 42.562C133.627 42.8161 133.448 43.0332 133.22 43.186C132.991 43.3388 132.722 43.4203 132.447 43.4203Z" fill="white"/>
<path d="M131.011 44.4111C130.797 44.4138 130.591 44.5011 130.441 44.654C130.29 44.8069 130.205 45.0131 130.205 45.228C130.204 45.3346 130.223 45.4404 130.263 45.5393C130.303 45.6382 130.363 45.7281 130.438 45.8038C130.513 45.8795 130.602 45.9395 130.701 45.9803C130.799 46.0211 130.905 46.0419 131.011 46.0414C131.12 46.0463 131.228 46.0287 131.329 45.9896C131.431 45.9505 131.523 45.8909 131.6 45.8145C131.677 45.738 131.737 45.6465 131.777 45.5455C131.817 45.4446 131.836 45.3365 131.832 45.228C131.835 45.1196 131.815 45.0118 131.775 44.9112C131.735 44.8105 131.675 44.7191 131.598 44.6427C131.521 44.5662 131.429 44.5062 131.329 44.4663C131.228 44.4265 131.12 44.4077 131.011 44.4111Z" fill="white"/>
<path d="M116.523 47.2303C116.352 47.2296 116.186 47.2795 116.044 47.3738C115.902 47.468 115.791 47.6023 115.726 47.7595C115.661 47.9168 115.644 48.0899 115.677 48.2568C115.71 48.4238 115.793 48.5771 115.913 48.6973C116.034 48.8174 116.187 48.899 116.355 48.9316C116.522 48.9642 116.695 48.9464 116.852 48.8805C117.009 48.8145 117.142 48.7034 117.236 48.5612C117.33 48.419 117.379 48.2522 117.378 48.082C117.382 47.9686 117.363 47.8556 117.322 47.75C117.28 47.6445 117.217 47.5486 117.137 47.4686C117.056 47.3886 116.96 47.3261 116.855 47.2851C116.749 47.244 116.636 47.2254 116.523 47.2303ZM116.523 48.5512C116.461 48.5517 116.4 48.5399 116.343 48.5164C116.286 48.4929 116.234 48.4583 116.191 48.4146C116.147 48.3709 116.113 48.319 116.09 48.2618C116.067 48.2047 116.056 48.1435 116.057 48.082C116.054 48.0203 116.065 47.9588 116.087 47.9013C116.11 47.8439 116.144 47.7917 116.188 47.7482C116.232 47.7048 116.284 47.6709 116.342 47.6487C116.399 47.6266 116.461 47.6167 116.523 47.6196C116.584 47.6187 116.646 47.6302 116.703 47.6535C116.76 47.6768 116.812 47.7113 116.855 47.7552C116.899 47.799 116.933 47.8511 116.956 47.9085C116.979 47.9658 116.99 48.0272 116.988 48.0889C116.986 48.2113 116.936 48.3278 116.849 48.4141C116.762 48.5003 116.645 48.5495 116.523 48.5512Z" fill="white"/>
<path d="M126.757 51.4435C126.663 51.4434 126.571 51.4622 126.485 51.4986C126.399 51.5351 126.321 51.5885 126.256 51.6556C126.191 51.7228 126.141 51.8023 126.107 51.8895C126.074 51.9767 126.058 52.0697 126.061 52.1631C126.056 52.259 126.072 52.355 126.106 52.4448C126.14 52.5346 126.192 52.6164 126.259 52.685C126.327 52.7536 126.407 52.8075 126.497 52.8433C126.586 52.8791 126.681 52.8961 126.777 52.8931C126.877 52.8999 126.977 52.8863 127.07 52.853C127.164 52.8197 127.25 52.7674 127.323 52.6995C127.396 52.6315 127.454 52.5493 127.494 52.4579C127.534 52.3665 127.554 52.2679 127.554 52.1683C127.554 52.0686 127.534 51.97 127.494 51.8787C127.454 51.7873 127.396 51.7051 127.323 51.6371C127.25 51.5691 127.164 51.5168 127.07 51.4835C126.977 51.4502 126.877 51.4366 126.777 51.4435H126.757ZM126.757 52.5142C126.664 52.5142 126.576 52.4775 126.511 52.4123C126.446 52.3471 126.409 52.2587 126.409 52.1665C126.409 52.0743 126.446 51.9859 126.511 51.9207C126.576 51.8555 126.664 51.8189 126.757 51.8189C126.841 51.8198 126.923 51.8537 126.983 51.9134C127.043 51.973 127.078 52.0539 127.08 52.1387C127.088 52.2277 127.061 52.3164 127.006 52.3863C126.95 52.4562 126.869 52.502 126.781 52.5142H126.757Z" fill="white"/>
</svg>
